<svg aria-hidden="true" style="position: absolute; width: 0; height: 0; overflow: hidden;" version="1.1" xmlns="http://www.w3.org/2000/svg" xmlns:xlink="http://www.w3.org/1999/xlink">
<defs>
<symbol id="icon-avatar" viewBox="0 0 32 32">
<path stroke-linejoin="miter" stroke-linecap="butt" stroke-miterlimit="4" stroke-width="1" d="M31.5 16c0 8.56-6.94 15.5-15.5 15.5s-15.5-6.94-15.5-15.5c0-8.56 6.94-15.5 15.5-15.5s15.5 6.94 15.5 15.5z"></path>
</symbol>
<symbol id="icon-bell" viewBox="0 0 32 32">
<path d="M25.5 24h-0.75v-10.625c0-4.409-3.259-8.053-7.5-8.659v-1.216c0-0.691-0.559-1.25-1.25-1.25s-1.25 0.559-1.25 1.25v1.216c-4.241 0.606-7.5 4.25-7.5 8.659v10.625h-0.75c-0.553 0-1 0.447-1 1v1c0 0.137 0.112 0.25 0.25 0.25h6.75c0 1.931 1.569 3.5 3.5 3.5s3.5-1.569 3.5-3.5h6.75c0.137 0 0.25-0.113 0.25-0.25v-1c0-0.553-0.447-1-1-1zM16 27.75c-0.828 0-1.5-0.672-1.5-1.5h3c0 0.828-0.672 1.5-1.5 1.5zM9.5 24v-10.625c0-1.737 0.675-3.369 1.903-4.597s2.859-1.903 4.597-1.903c1.737 0 3.369 0.675 4.597 1.903s1.903 2.859 1.903 4.597v10.625h-13z"></path>
</symbol>
<symbol id="icon-down" viewBox="0 0 32 32">
<path d="M26.262 9.375h-20.525c-0.616 0-0.959 0.65-0.578 1.094l10.262 11.9c0.294 0.341 0.859 0.341 1.156 0l10.263-11.9c0.381-0.444 0.037-1.094-0.578-1.094z"></path>
</symbol>
<symbol id="icon-clock" viewBox="0 0 32 32">
<path fill="#0050b3" style="fill: var(--color4, #0050b3)" d="M16 2c-7.731 0-14 6.269-14 14s6.269 14 14 14c7.731 0 14-6.269 14-14s-6.269-14-14-14zM16 27.625c-6.419 0-11.625-5.206-11.625-11.625s5.206-11.625 11.625-11.625c6.419 0 11.625 5.206 11.625 11.625s-5.206 11.625-11.625 11.625z"></path>
<path fill="#0050b3" style="fill: var(--color4, #0050b3)" d="M21.459 19.956l-4.456-3.222v-7.734c0-0.137-0.113-0.25-0.25-0.25h-1.503c-0.137 0-0.25 0.113-0.25 0.25v8.606c0 0.081 0.037 0.156 0.103 0.203l5.169 3.769c0.113 0.081 0.269 0.056 0.35-0.053l0.894-1.219c0.081-0.116 0.056-0.272-0.056-0.35z"></path>
</symbol>
<symbol id="icon-customer-service" viewBox="0 0 32 32">
<path fill="#e6f7ff" style="fill: var(--color5, #e6f7ff)" d="M21.75 19.75h4v6h-4v-6zM6.25 19.75h4v6h-4v-6z"></path>
<path fill="#1890ff" style="fill: var(--color6, #1890ff)" d="M16 4c-6.628 0-12 5.372-12 12v11.25c0 0.416 0.334 0.75 0.75 0.75h5.75c1.103 0 2-0.897 2-2v-6.5c0-1.103-0.897-2-2-2h-4.25v-1.5c0-5.384 4.366-9.75 9.75-9.75s9.75 4.366 9.75 9.75v1.5h-4.25c-1.103 0-2 0.897-2 2v6.5c0 1.103 0.897 2 2 2h5.75c0.416 0 0.75-0.334 0.75-0.75v-11.25c0-6.628-5.372-12-12-12zM10.25 19.75v6h-4v-6h4zM25.75 25.75h-4v-6h4v6z"></path>
</symbol>
<symbol id="icon-flag" viewBox="0 0 32 32">
<path fill="#e6f7ff" style="fill: var(--color5, #e6f7ff)" d="M5.75 7.25h11.5v10.5h-11.5v-10.5z"></path>
<path fill="#e6f7ff" style="fill: var(--color5, #e6f7ff)" d="M19.5 19.75c0 0.137-0.113 0.25-0.25 0.25h-3.5v2.281h10.5v-10.5h-6.75v7.969z"></path>
<path fill="#1890ff" style="fill: var(--color6, #1890ff)" d="M27.5 9.531h-8v-3.531c0-0.553-0.447-1-1-1h-12.75v-1.25c0-0.138-0.112-0.25-0.25-0.25h-1.75c-0.138 0-0.25 0.112-0.25 0.25v24.5c0 0.137 0.112 0.25 0.25 0.25h1.75c0.138 0 0.25-0.113 0.25-0.25v-8.25h7.75v3.531c0 0.553 0.447 1 1 1h13c0.553 0 1-0.447 1-1v-13c0-0.553-0.447-1-1-1zM5.75 17.75v-10.5h11.5v10.5h-11.5zM26.25 22.281h-10.5v-2.281h3.5c0.137 0 0.25-0.113 0.25-0.25v-7.969h6.75v10.5z"></path>
</symbol>
<symbol id="icon-gift" viewBox="0 0 32 32">
<path fill="#e6f7ff" style="fill: var(--color5, #e6f7ff)" d="M17.063 11.813h9.312v3.25h-9.312v-3.25zM7.125 17.187h7.812v9.625h-7.812v-9.625zM5.625 11.813h9.312v3.25h-9.312v-3.25zM17.063 17.187h7.812v9.625h-7.812v-9.625z"></path>
<path fill="#1890ff" style="fill: var(--color6, #1890ff)" d="M27.5 9.688h-4.613c0.425-0.669 0.675-1.463 0.675-2.313 0-2.378-1.934-4.313-4.313-4.313-1.294 0-2.459 0.575-3.25 1.481-0.791-0.906-1.956-1.481-3.25-1.481-2.378 0-4.313 1.934-4.313 4.313 0 0.85 0.247 1.644 0.675 2.313h-4.612c-0.553 0-1 0.447-1 1v6.25c0 0.137 0.112 0.25 0.25 0.25h1.25v10.75c0 0.553 0.447 1 1 1h20c0.553 0 1-0.447 1-1v-10.75h1.25c0.137 0 0.25-0.113 0.25-0.25v-6.25c0-0.553-0.447-1-1-1zM14.937 26.813h-7.812v-9.625h7.812v9.625zM14.937 15.063h-9.312v-3.25h9.312v3.25zM14.937 9.563h-2.187c-1.206 0-2.188-0.981-2.188-2.188s0.981-2.188 2.188-2.188c1.206 0 2.187 0.981 2.187 2.188v2.188zM17.063 7.375c0-1.206 0.981-2.188 2.187-2.188s2.187 0.981 2.187 2.188c0 1.206-0.981 2.188-2.187 2.188h-2.187v-2.188zM24.875 26.813h-7.812v-9.625h7.812v9.625zM26.375 15.063h-9.312v-3.25h9.312v3.25z"></path>
</symbol>
<symbol id="icon-home" viewBox="0 0 32 32">
<path fill="#e6f7ff" style="fill: var(--color5, #e6f7ff)" d="M16.004 5.394l-11.563 11.553h3v10.178h4.809v-7.125c0-0.691 0.559-1.25 1.25-1.25h5c0.691 0 1.25 0.559 1.25 1.25v7.125h4.809v-10.178h3.003l-11.559-11.553zM29.582 18.609c-0.187 0.188-0.409 0.338-0.65 0.434 0.241-0.1 0.463-0.247 0.65-0.434zM1.863 17.525c0.156 0.947 0.981 1.672 1.972 1.672h0.028c-0.997 0-1.841-0.719-2-1.672zM1.835 17.197v0zM1.839 17.116c0.003-0.097 0.016-0.191 0.031-0.284-0.019 0.091-0.028 0.187-0.031 0.284z"></path>
<path fill="#1890ff" style="fill: var(--color6, #1890ff)" d="M29.718 15.937c0-0.003-0.003-0.003-0.003-0.006l-0.056-0.066c-0.003-0.003-0.006-0.009-0.013-0.013-0.022-0.025-0.047-0.050-0.069-0.075l-12.884-12.875c-0.184-0.183-0.434-0.286-0.694-0.286s-0.509 0.103-0.694 0.286l-12.884 12.878c-0.233 0.232-0.405 0.517-0.5 0.831l-0.019 0.066-0.009 0.034-0.009 0.037c-0.006 0.022-0.009 0.044-0.012 0.066 0 0.003 0 0.009-0.003 0.013-0.019 0.094-0.028 0.187-0.031 0.284v0.103c0 0.016 0 0.031 0.003 0.047 0 0.016 0 0.028 0.003 0.044 0 0.016 0.003 0.031 0.003 0.047 0 0.019 0.003 0.038 0.006 0.056 0 0.009 0.003 0.019 0.003 0.028l0.009 0.078v0.003c0.159 0.953 1.006 1.672 2 1.672h1.328v10.184h21.616v-10.178h1.356c0.269 0 0.528-0.053 0.766-0.153s0.459-0.247 0.65-0.434c0.186-0.186 0.334-0.406 0.434-0.649s0.151-0.503 0.15-0.766c0-0.459-0.156-0.9-0.447-1.256zM17.749 27.125h-3.5v-6.375h3.5v6.375zM24.558 16.947v10.178h-4.809v-7.125c0-0.691-0.559-1.25-1.25-1.25h-5c-0.691 0-1.25 0.559-1.25 1.25v7.125h-4.809v-10.178h-3l11.563-11.553 11.559 11.553h-3.003z"></path>
</symbol>
<symbol id="icon-search" viewBox="0 0 32 32">
<path d="M30.2 28.232l-9.275-9.275c1.439-1.861 2.218-4.136 2.218-6.529 0-2.864-1.118-5.55-3.139-7.575s-4.714-3.139-7.575-3.139c-2.861 0-5.554 1.118-7.575 3.139-2.025 2.021-3.139 4.711-3.139 7.575 0 2.861 1.118 5.554 3.139 7.575 2.021 2.025 4.711 3.139 7.575 3.139 2.393 0 4.664-0.779 6.525-2.214l9.275 9.271c0.027 0.027 0.059 0.049 0.095 0.064s0.074 0.022 0.112 0.022c0.039 0 0.077-0.008 0.112-0.022s0.068-0.036 0.095-0.064l1.557-1.554c0.027-0.027 0.049-0.059 0.064-0.095s0.022-0.074 0.022-0.112-0.008-0.077-0.022-0.112c-0.015-0.035-0.036-0.068-0.064-0.095zM18.086 18.086c-1.514 1.511-3.521 2.343-5.657 2.343s-4.143-0.832-5.657-2.343c-1.511-1.514-2.343-3.521-2.343-5.657s0.832-4.146 2.343-5.657c1.514-1.511 3.521-2.343 5.657-2.343s4.146 0.829 5.657 2.343c1.511 1.514 2.343 3.521 2.343 5.657s-0.832 4.146-2.343 5.657z"></path>
</symbol>
<symbol id="icon-info" viewBox="0 0 32 32">
<path d="M16 2c-7.731 0-14 6.269-14 14s6.269 14 14 14c7.731 0 14-6.269 14-14s-6.269-14-14-14zM16 27.625c-6.419 0-11.625-5.206-11.625-11.625s5.206-11.625 11.625-11.625c6.419 0 11.625 5.206 11.625 11.625s-5.206 11.625-11.625 11.625z"></path>
<path d="M14.5 10.5c0 0.398 0.158 0.779 0.439 1.061s0.663 0.439 1.061 0.439c0.398 0 0.779-0.158 1.061-0.439s0.439-0.663 0.439-1.061c0-0.398-0.158-0.779-0.439-1.061s-0.663-0.439-1.061-0.439c-0.398 0-0.779 0.158-1.061 0.439s-0.439 0.663-0.439 1.061zM16.75 14h-1.5c-0.137 0-0.25 0.113-0.25 0.25v8.5c0 0.137 0.113 0.25 0.25 0.25h1.5c0.137 0 0.25-0.113 0.25-0.25v-8.5c0-0.137-0.113-0.25-0.25-0.25z"></path>
</symbol>
<symbol id="icon-like" viewBox="0 0 32 32">
<path fill="#595959" style="fill: var(--color8, #595959)" d="M27.684 16.679c0.525-0.694 0.816-1.544 0.816-2.428 0-1.403-0.784-2.731-2.047-3.472-0.325-0.191-0.695-0.291-1.072-0.291h-7.494l0.188-3.841c0.044-0.928-0.284-1.809-0.922-2.481-0.313-0.331-0.69-0.595-1.109-0.774s-0.87-0.271-1.325-0.27c-1.625 0-3.063 1.094-3.494 2.659l-2.684 9.719h-4.041c-0.553 0-1 0.447-1 1v11.375c0 0.553 0.447 1 1 1h18.791c0.287 0 0.569-0.056 0.828-0.169 1.487-0.634 2.447-2.087 2.447-3.7 0-0.394-0.056-0.781-0.169-1.156 0.525-0.694 0.816-1.544 0.816-2.428 0-0.394-0.056-0.781-0.169-1.156 0.525-0.694 0.816-1.544 0.816-2.428-0.006-0.394-0.062-0.784-0.175-1.159zM5.75 26.626v-8.875h2.531v8.875h-2.531zM25.637 15.595l-0.684 0.594 0.434 0.794c0.143 0.261 0.217 0.555 0.216 0.853 0 0.516-0.225 1.006-0.612 1.344l-0.684 0.594 0.434 0.794c0.143 0.261 0.217 0.555 0.216 0.853 0 0.516-0.225 1.006-0.613 1.344l-0.684 0.594 0.434 0.794c0.143 0.261 0.217 0.555 0.216 0.853 0 0.7-0.412 1.331-1.050 1.619h-12.978v-8.972l3.109-11.266c0.080-0.289 0.252-0.543 0.49-0.726s0.529-0.282 0.828-0.284c0.238 0 0.472 0.069 0.659 0.209 0.309 0.231 0.475 0.581 0.456 0.953l-0.3 6.2h9.825c0.556 0.341 0.9 0.916 0.9 1.512 0 0.516-0.225 1.003-0.613 1.344z"></path>
</symbol>
<symbol id="icon-marketplace" viewBox="0 0 32 32">
<path fill="#e6f7ff" style="fill: var(--color5, #e6f7ff)" d="M26.234 10.75h-20.469c-0.009 0-0.016 0.006-0.016 0.016v2.85c0 1.869 1.531 3.384 3.416 3.384 1.272 0 2.381-0.687 2.972-1.709 0.091-0.159 0.262-0.259 0.447-0.259s0.353 0.1 0.447 0.259c0.588 1.022 1.697 1.709 2.969 1.709 1.275 0 2.387-0.691 2.972-1.716 0.091-0.156 0.256-0.253 0.434-0.253h0.019c0.181 0 0.344 0.097 0.434 0.253 0.588 1.025 1.7 1.716 2.975 1.716 1.884 0 3.416-1.516 3.416-3.384v-2.85c0-0.009-0.006-0.016-0.016-0.016z"></path>
<path fill="#1890ff" style="fill: var(--color6, #1890ff)" d="M27.563 8.503v-4.003c0-0.553-0.447-1-1-1h-21.125c-0.553 0-1 0.447-1 1v4.003c-0.522 0.031-0.938 0.466-0.938 0.997v4.116c-0.002 0.756 0.151 1.505 0.45 2.2 0.134 0.319 0.3 0.619 0.487 0.903v10.781c0 0.55 0.447 1 1 1h21.125c0.553 0 1-0.447 1-1v-10.781c0.19-0.285 0.354-0.587 0.487-0.903 0.297-0.697 0.45-1.437 0.45-2.2v-4.116c0-0.531-0.416-0.966-0.937-0.997zM6.688 5.75h18.625v2.75h-18.625v-2.75zM18.001 26.253h-4v-3.253h4v3.253zM25.325 26.253h-5.325v-4.253c0-0.553-0.447-1-1-1h-6c-0.553 0-1 0.447-1 1v4.253h-5.313v-7.569c0.091 0.044 0.184 0.087 0.281 0.125 0.697 0.294 1.438 0.441 2.2 0.441s1.5-0.147 2.2-0.441c0.431-0.181 0.838-0.412 1.209-0.691 0.006-0.003 0.012-0.003 0.019 0 0.373 0.279 0.779 0.511 1.209 0.691 0.697 0.294 1.437 0.441 2.2 0.441s1.5-0.147 2.2-0.441c0.431-0.181 0.837-0.412 1.209-0.691 0.006-0.003 0.013-0.003 0.019 0 0.373 0.279 0.779 0.511 1.209 0.691 0.697 0.294 1.437 0.441 2.2 0.441s1.5-0.147 2.2-0.441c0.094-0.041 0.187-0.081 0.281-0.125v7.569zM26.251 13.616c0 1.869-1.531 3.384-3.416 3.384-1.275 0-2.388-0.691-2.975-1.716-0.091-0.156-0.253-0.253-0.434-0.253h-0.019c-0.178 0-0.344 0.097-0.434 0.253-0.3 0.523-0.733 0.957-1.255 1.258s-1.115 0.459-1.717 0.457c-1.272 0-2.381-0.687-2.969-1.709-0.094-0.159-0.262-0.259-0.447-0.259s-0.356 0.1-0.447 0.259c-0.302 0.521-0.735 0.953-1.257 1.253s-1.113 0.457-1.715 0.456c-1.884 0-3.416-1.516-3.416-3.384v-2.85c0-0.009 0.006-0.016 0.016-0.016h20.469c0.009 0 0.016 0.006 0.016 0.016v2.85z"></path>
</symbol>
<symbol id="icon-message" viewBox="0 0 32 32">
<path d="M14.5 16c0 0.398 0.158 0.779 0.439 1.061s0.663 0.439 1.061 0.439c0.398 0 0.779-0.158 1.061-0.439s0.439-0.663 0.439-1.061c0-0.398-0.158-0.779-0.439-1.061s-0.663-0.439-1.061-0.439c-0.398 0-0.779 0.158-1.061 0.439s-0.439 0.663-0.439 1.061zM20.75 16c0 0.398 0.158 0.779 0.439 1.061s0.663 0.439 1.061 0.439c0.398 0 0.779-0.158 1.061-0.439s0.439-0.663 0.439-1.061c0-0.398-0.158-0.779-0.439-1.061s-0.663-0.439-1.061-0.439c-0.398 0-0.779 0.158-1.061 0.439s-0.439 0.663-0.439 1.061zM8.25 16c0 0.398 0.158 0.779 0.439 1.061s0.663 0.439 1.061 0.439c0.398 0 0.779-0.158 1.061-0.439s0.439-0.663 0.439-1.061c0-0.398-0.158-0.779-0.439-1.061s-0.663-0.439-1.061-0.439c-0.398 0-0.779 0.158-1.061 0.439s-0.439 0.663-0.439 1.061zM28.913 10.575c-0.706-1.678-1.719-3.184-3.009-4.478-1.282-1.286-2.803-2.309-4.478-3.009-1.719-0.722-3.544-1.087-5.425-1.087h-0.063c-1.894 0.009-3.728 0.384-5.453 1.122-1.661 0.708-3.168 1.732-4.438 3.016-1.278 1.291-2.281 2.791-2.975 4.463-0.719 1.731-1.081 3.572-1.072 5.466 0.011 2.17 0.524 4.309 1.5 6.247v4.75c0 0.381 0.151 0.747 0.421 1.016s0.635 0.421 1.016 0.421h4.753c1.938 0.976 4.077 1.489 6.247 1.5h0.066c1.872 0 3.688-0.363 5.397-1.072 1.667-0.692 3.182-1.703 4.463-2.975 1.291-1.278 2.306-2.772 3.016-4.437 0.737-1.725 1.113-3.559 1.122-5.453 0.009-1.903-0.359-3.75-1.087-5.488zM24.191 24.263c-2.191 2.169-5.097 3.363-8.191 3.363h-0.053c-1.884-0.009-3.756-0.478-5.409-1.359l-0.262-0.141h-4.4v-4.4l-0.141-0.263c-0.881-1.653-1.35-3.525-1.359-5.409-0.013-3.116 1.178-6.041 3.362-8.244 2.181-2.203 5.097-3.422 8.213-3.434h0.053c1.563 0 3.078 0.303 4.506 0.903 1.394 0.584 2.644 1.425 3.719 2.5 1.072 1.072 1.916 2.325 2.5 3.719 0.606 1.444 0.909 2.975 0.903 4.556-0.019 3.113-1.241 6.028-3.441 8.209z"></path>
</symbol>
<symbol id="icon-message-side" viewBox="0 0 24 24">
<path d="M18.1719 5.83371C17.3735 5.03264 16.426 4.39565 15.3828 3.95871C14.3129 3.50917 13.1637 3.27885 12.0031 3.28136H11.9633C9.62659 3.29074 7.43987 4.2048 5.80393 5.85714C4.16565 7.50949 3.27268 9.70324 3.28206 12.04C3.28909 13.4532 3.64065 14.8571 4.30159 16.097L4.40706 16.2939V19.5939H7.70706L7.90393 19.6993C9.14377 20.3603 10.5477 20.7118 11.961 20.7189H12.0008C14.3211 20.7189 16.5008 19.8235 18.1438 18.197C19.7938 16.561 20.7102 14.3743 20.7242 12.04C20.7289 10.854 20.5016 9.70558 20.0469 8.62277C19.6097 7.57975 18.9727 6.63229 18.1719 5.83371ZM7.31331 13.1251C7.01891 13.1191 6.73861 12.9979 6.53253 12.7876C6.32646 12.5773 6.21104 12.2946 6.21104 12.0001C6.21104 11.7057 6.32646 11.4229 6.53253 11.2126C6.73861 11.0023 7.01891 10.8811 7.31331 10.8751C7.6077 10.8811 7.88801 11.0023 8.09408 11.2126C8.30015 11.4229 8.41558 11.7057 8.41558 12.0001C8.41558 12.2946 8.30015 12.5773 8.09408 12.7876C7.88801 12.9979 7.6077 13.1191 7.31331 13.1251ZM12.0008 13.1251C11.7064 13.1191 11.4261 12.9979 11.22 12.7876C11.014 12.5773 10.8985 12.2946 10.8985 12.0001C10.8985 11.7057 11.014 11.4229 11.22 11.2126C11.4261 11.0023 11.7064 10.8811 12.0008 10.8751C12.2952 10.8811 12.5755 11.0023 12.7816 11.2126C12.9877 11.4229 13.1031 11.7057 13.1031 12.0001C13.1031 12.2946 12.9877 12.5773 12.7816 12.7876C12.5755 12.9979 12.2952 13.1191 12.0008 13.1251ZM16.6883 13.1251C16.3939 13.1191 16.1136 12.9979 15.9075 12.7876C15.7015 12.5773 15.586 12.2946 15.586 12.0001C15.586 11.7057 15.7015 11.4229 15.9075 11.2126C16.1136 11.0023 16.3939 10.8811 16.6883 10.8751C16.9827 10.8811 17.263 11.0023 17.4691 11.2126C17.6752 11.4229 17.7906 11.7057 17.7906 12.0001C17.7906 12.2946 17.6752 12.5773 17.4691 12.7876C17.263 12.9979 16.9827 13.1191 16.6883 13.1251Z" fill="#E6F7FF"/>
<path d="M15.5625 12C15.5625 12.2984 15.681 12.5845 15.892 12.7955C16.103 13.0065 16.3891 13.125 16.6875 13.125C16.9859 13.125 17.272 13.0065 17.483 12.7955C17.694 12.5845 17.8125 12.2984 17.8125 12C17.8125 11.7016 17.694 11.4155 17.483 11.2045C17.272 10.9935 16.9859 10.875 16.6875 10.875C16.3891 10.875 16.103 10.9935 15.892 11.2045C15.681 11.4155 15.5625 11.7016 15.5625 12ZM6.1875 12C6.1875 12.2984 6.30603 12.5845 6.517 12.7955C6.72798 13.0065 7.01413 13.125 7.3125 13.125C7.61087 13.125 7.89702 13.0065 8.108 12.7955C8.31897 12.5845 8.4375 12.2984 8.4375 12C8.4375 11.7016 8.31897 11.4155 8.108 11.2045C7.89702 10.9935 7.61087 10.875 7.3125 10.875C7.01413 10.875 6.72798 10.9935 6.517 11.2045C6.30603 11.4155 6.1875 11.7016 6.1875 12Z" fill="#1890FF"/>
<path d="M21.6846 7.93125C21.1549 6.67266 20.3955 5.54297 19.4275 4.57266C18.4663 3.60796 17.3253 2.84114 16.0689 2.31563C14.7799 1.77422 13.4111 1.5 12.0002 1.5H11.9533C10.533 1.50703 9.15723 1.78828 7.86348 2.34141C6.61791 2.87232 5.48753 3.64049 4.53535 4.60312C3.57676 5.57109 2.82441 6.69609 2.3041 7.95C1.76504 9.24844 1.49316 10.6289 1.50019 12.0492C1.50815 13.6769 1.89322 15.2806 2.62519 16.7344V20.2969C2.62519 20.5828 2.73878 20.857 2.94097 21.0592C3.14316 21.2614 3.41738 21.375 3.70332 21.375H7.26816C8.72198 22.107 10.3257 22.492 11.9533 22.5H12.0025C13.4064 22.5 14.7682 22.2281 16.0502 21.6961C17.3002 21.1768 18.437 20.419 19.3971 19.4648C20.365 18.5063 21.1268 17.3859 21.6588 16.1367C22.2119 14.843 22.4932 13.4672 22.5002 12.0469C22.5072 10.6195 22.2307 9.23438 21.6846 7.93125ZM18.1432 18.1969C16.5002 19.8234 14.3205 20.7188 12.0002 20.7188H11.9604C10.5471 20.7117 9.14316 20.3602 7.90332 19.6992L7.70644 19.5938H4.40644V16.2938L4.30098 16.0969C3.64004 14.857 3.28848 13.4531 3.28144 12.0398C3.27207 9.70312 4.16504 7.50937 5.80332 5.85703C7.43926 4.20469 9.62598 3.29062 11.9627 3.28125H12.0025C13.1744 3.28125 14.3111 3.50859 15.3822 3.95859C16.4275 4.39687 17.365 5.02734 18.1713 5.83359C18.9752 6.6375 19.608 7.57734 20.0463 8.62266C20.501 9.70547 20.7283 10.8539 20.7236 12.0398C20.7096 14.3742 19.7932 16.5609 18.1432 18.1969Z" fill="#1890FF"/>
<path d="M10.875 12C10.875 12.2984 10.9935 12.5845 11.2045 12.7955C11.4155 13.0065 11.7016 13.125 12 13.125C12.2984 13.125 12.5845 13.0065 12.7955 12.7955C13.0065 12.5845 13.125 12.2984 13.125 12C13.125 11.7016 13.0065 11.4155 12.7955 11.2045C12.5845 10.9935 12.2984 10.875 12 10.875C11.7016 10.875 11.4155 10.9935 11.2045 11.2045C10.9935 11.4155 10.875 11.7016 10.875 12Z" fill="#1890FF"/>
</symbol>
<symbol id="icon-newsfeed" viewBox="0 0 32 32">
<path fill="#1890ff" style="fill: var(--color6, #1890ff)" d="M27.5 3.5h-23c-0.553 0-1 0.447-1 1v23c0 0.553 0.447 1 1 1h23c0.553 0 1-0.447 1-1v-23c0-0.553-0.447-1-1-1zM26.25 26.25h-20.5v-20.5h20.5v20.5z"></path>
<path fill="#e6f7ff" style="fill: var(--color5, #e6f7ff)" d="M5.75 26.25h20.5v-20.5h-20.5v20.5zM15.125 10.75c0-0.137 0.112-0.25 0.25-0.25h5.75c0.137 0 0.25 0.113 0.25 0.25v1.5c0 0.137-0.112 0.25-0.25 0.25h-5.75c-0.137 0-0.25-0.113-0.25-0.25v-1.5zM15.125 15.25c0-0.137 0.112-0.25 0.25-0.25h5.75c0.137 0 0.25 0.113 0.25 0.25v1.5c0 0.137-0.112 0.25-0.25 0.25h-5.75c-0.137 0-0.25-0.113-0.25-0.25v-1.5zM15.125 19.75c0-0.137 0.112-0.25 0.25-0.25h5.75c0.137 0 0.25 0.113 0.25 0.25v1.5c0 0.137-0.112 0.25-0.25 0.25h-5.75c-0.137 0-0.25-0.113-0.25-0.25v-1.5zM11.875 10.25c0.691 0 1.25 0.559 1.25 1.25s-0.559 1.25-1.25 1.25c-0.691 0-1.25-0.559-1.25-1.25s0.559-1.25 1.25-1.25zM11.875 14.75c0.691 0 1.25 0.559 1.25 1.25s-0.559 1.25-1.25 1.25c-0.691 0-1.25-0.559-1.25-1.25s0.559-1.25 1.25-1.25zM11.875 19.25c0.691 0 1.25 0.559 1.25 1.25s-0.559 1.25-1.25 1.25c-0.691 0-1.25-0.559-1.25-1.25s0.559-1.25 1.25-1.25z"></path>
<path fill="#1890ff" style="fill: var(--color6, #1890ff)" d="M10.625 20.5c0 0.331 0.132 0.649 0.366 0.884s0.552 0.366 0.884 0.366c0.332 0 0.649-0.132 0.884-0.366s0.366-0.552 0.366-0.884c0-0.331-0.132-0.649-0.366-0.884s-0.552-0.366-0.884-0.366c-0.332 0-0.649 0.132-0.884 0.366s-0.366 0.552-0.366 0.884zM10.625 16c0 0.331 0.132 0.649 0.366 0.884s0.552 0.366 0.884 0.366c0.332 0 0.649-0.132 0.884-0.366s0.366-0.552 0.366-0.884c0-0.331-0.132-0.649-0.366-0.884s-0.552-0.366-0.884-0.366c-0.332 0-0.649 0.132-0.884 0.366s-0.366 0.552-0.366 0.884zM10.625 11.5c0 0.332 0.132 0.649 0.366 0.884s0.552 0.366 0.884 0.366c0.332 0 0.649-0.132 0.884-0.366s0.366-0.552 0.366-0.884c0-0.332-0.132-0.649-0.366-0.884s-0.552-0.366-0.884-0.366c-0.332 0-0.649 0.132-0.884 0.366s-0.366 0.552-0.366 0.884zM15.375 21.5h5.75c0.137 0 0.25-0.113 0.25-0.25v-1.5c0-0.137-0.112-0.25-0.25-0.25h-5.75c-0.137 0-0.25 0.113-0.25 0.25v1.5c0 0.137 0.112 0.25 0.25 0.25zM15.375 17h5.75c0.137 0 0.25-0.113 0.25-0.25v-1.5c0-0.137-0.112-0.25-0.25-0.25h-5.75c-0.137 0-0.25 0.113-0.25 0.25v1.5c0 0.137 0.112 0.25 0.25 0.25zM15.375 12.5h5.75c0.137 0 0.25-0.113 0.25-0.25v-1.5c0-0.137-0.112-0.25-0.25-0.25h-5.75c-0.137 0-0.25 0.113-0.25 0.25v1.5c0 0.137 0.112 0.25 0.25 0.25z"></path>
</symbol>
<symbol id="icon-picture" viewBox="0 0 32 32">
<path fill="#1890ff" style="fill: var(--color6, #1890ff)" d="M29 5h-26c-0.553 0-1 0.447-1 1v20c0 0.553 0.447 1 1 1h26c0.553 0 1-0.447 1-1v-20c0-0.553-0.447-1-1-1zM27.75 24.75h-23.5v-1.247l4.328-5.134 4.691 5.562 7.297-8.65 7.184 8.519v0.95zM27.75 20.694l-6.994-8.294c-0.1-0.119-0.281-0.119-0.381 0l-7.106 8.425-4.5-5.334c-0.1-0.119-0.281-0.119-0.381 0l-4.138 4.906v-13.147h23.5v13.444z"></path>
<path fill="#e6f7ff" style="fill: var(--color5, #e6f7ff)" d="M13.269 23.931l-4.691-5.562-4.328 5.134v1.247h23.5v-0.95l-7.184-8.519-7.297 8.65z"></path>
<path fill="#e6f7ff" style="fill: var(--color5, #e6f7ff)" d="M4.25 20.397l4.137-4.906c0.1-0.119 0.281-0.119 0.381 0l4.5 5.334 7.106-8.425c0.1-0.119 0.281-0.119 0.381 0l6.994 8.294v-13.444h-23.5v13.147zM9.5 8.75c0.361 0 0.719 0.071 1.052 0.209s0.637 0.341 0.892 0.596c0.255 0.255 0.458 0.559 0.596 0.892s0.209 0.691 0.209 1.052c0 0.361-0.071 0.719-0.209 1.052s-0.341 0.637-0.596 0.892c-0.255 0.255-0.559 0.458-0.892 0.596s-0.691 0.209-1.052 0.209c-0.729 0-1.429-0.29-1.945-0.805s-0.805-1.215-0.805-1.945c0-0.729 0.29-1.429 0.805-1.945s1.215-0.805 1.945-0.805z"></path>
<path fill="#e6f7ff" style="fill: var(--color5, #e6f7ff)" d="M8.625 11.5c0 0.232 0.092 0.455 0.256 0.619s0.387 0.256 0.619 0.256c0.232 0 0.455-0.092 0.619-0.256s0.256-0.387 0.256-0.619c0-0.232-0.092-0.455-0.256-0.619s-0.387-0.256-0.619-0.256c-0.232 0-0.455 0.092-0.619 0.256s-0.256 0.387-0.256 0.619z"></path>
<path fill="#1890ff" style="fill: var(--color6, #1890ff)" d="M9.5 14.25c0.361 0 0.719-0.071 1.052-0.209s0.637-0.341 0.892-0.596 0.458-0.559 0.596-0.892c0.138-0.334 0.209-0.691 0.209-1.052s-0.071-0.719-0.209-1.052c-0.138-0.334-0.341-0.637-0.596-0.892s-0.559-0.458-0.892-0.596c-0.334-0.138-0.691-0.209-1.052-0.209-0.729 0-1.429 0.29-1.945 0.805s-0.805 1.215-0.805 1.945c0 0.729 0.29 1.429 0.805 1.945s1.215 0.805 1.945 0.805zM9.5 10.625c0.484 0 0.875 0.391 0.875 0.875s-0.391 0.875-0.875 0.875c-0.484 0-0.875-0.391-0.875-0.875s0.391-0.875 0.875-0.875z"></path>
</symbol>
<symbol id="icon-rocket" viewBox="0 0 32 32">
<path fill="#e6f7ff" style="fill: var(--color5, #e6f7ff)" d="M8.179 19.419c-0.294 0.456-0.531 0.947-0.703 1.456h2.65v-3.416c-0.775 0.506-1.438 1.172-1.947 1.959zM21.876 17.46v3.416h2.65c-0.172-0.509-0.409-1-0.703-1.456-0.504-0.783-1.167-1.451-1.947-1.959zM19.876 9.963l-3.875-4.594-3.875 4.594v10.912h7.75v-10.912zM16.001 14c-0.392-0.008-0.766-0.17-1.041-0.45s-0.429-0.657-0.429-1.050 0.154-0.77 0.429-1.050c0.275-0.28 0.649-0.442 1.041-0.45 0.393 0.008 0.766 0.17 1.041 0.45s0.429 0.657 0.429 1.050c0 0.393-0.154 0.77-0.429 1.050s-0.649 0.442-1.041 0.45z"></path>
<path fill="#1890ff" style="fill: var(--color6, #1890ff)" d="M27 23c0-3.487-2.044-6.5-5-7.903v-5.181c0-0.472-0.166-0.928-0.472-1.287l-4.763-5.647c-0.2-0.237-0.484-0.356-0.766-0.356s-0.566 0.119-0.766 0.356l-4.763 5.647c-0.304 0.36-0.471 0.816-0.472 1.287v5.181c-2.956 1.403-5 4.416-5 7.903h4.891c-0.072 0.225-0.109 0.469-0.109 0.744 0 0.691 0.238 1.366 0.669 1.9 0.352 0.437 0.818 0.768 1.347 0.956 0.722 1.687 2.362 2.775 4.203 2.775 0.909 0 1.791-0.269 2.544-0.775 0.737-0.494 1.309-1.184 1.656-2 0.528-0.187 0.995-0.517 1.347-0.953 0.432-0.539 0.668-1.209 0.669-1.9 0-0.263-0.034-0.513-0.097-0.744l4.881-0.003zM10.125 20.875h-2.65c0.172-0.509 0.409-1 0.703-1.456 0.509-0.788 1.172-1.453 1.947-1.959v3.416zM12.125 15.097v-5.134l3.875-4.594 3.875 4.594v10.912h-7.75v-5.778zM19.628 24.506c-0.163 0.094-0.35 0.131-0.534 0.106l-0.609-0.075-0.087 0.606c-0.169 1.184-1.2 2.078-2.397 2.078s-2.228-0.894-2.397-2.078l-0.087-0.609-0.609 0.078c-0.185 0.022-0.373-0.016-0.534-0.109-0.272-0.156-0.441-0.447-0.441-0.762 0-0.331 0.184-0.606 0.456-0.744h7.228c0.275 0.141 0.456 0.416 0.456 0.744-0.003 0.319-0.172 0.612-0.444 0.766zM21.875 20.875v-3.416c0.78 0.509 1.443 1.177 1.947 1.959 0.294 0.456 0.531 0.947 0.703 1.456h-2.65z"></path>
<path fill="#1890ff" style="fill: var(--color6, #1890ff)" d="M14.5 12.5c0 0.398 0.158 0.779 0.439 1.061s0.663 0.439 1.061 0.439c0.398 0 0.779-0.158 1.061-0.439s0.439-0.663 0.439-1.061c0-0.398-0.158-0.779-0.439-1.061s-0.663-0.439-1.061-0.439c-0.398 0-0.779 0.158-1.061 0.439s-0.439 0.663-0.439 1.061z"></path>
</symbol>
<symbol id="icon-setting" viewBox="0 0 32 32">
<path fill="#8c8c8c" style="fill: var(--color7, #8c8c8c)" d="M28.9 19.554l-2.047-1.75c0.097-0.594 0.147-1.2 0.147-1.806s-0.050-1.213-0.147-1.806l2.047-1.75c0.154-0.132 0.265-0.308 0.317-0.505s0.043-0.404-0.026-0.595l-0.028-0.081c-0.564-1.575-1.407-3.035-2.491-4.309l-0.056-0.066c-0.131-0.155-0.306-0.266-0.502-0.319s-0.403-0.045-0.595 0.022l-2.541 0.903c-0.938-0.769-1.984-1.375-3.116-1.8l-0.491-2.656c-0.037-0.2-0.134-0.384-0.278-0.527s-0.328-0.24-0.528-0.276l-0.084-0.016c-1.628-0.294-3.341-0.294-4.969 0l-0.084 0.016c-0.2 0.036-0.384 0.132-0.528 0.276s-0.241 0.327-0.278 0.527l-0.494 2.669c-1.122 0.425-2.167 1.031-3.094 1.794l-2.559-0.909c-0.191-0.068-0.399-0.076-0.595-0.022s-0.371 0.164-0.502 0.319l-0.056 0.066c-1.082 1.275-1.926 2.735-2.491 4.309l-0.028 0.081c-0.141 0.391-0.025 0.828 0.291 1.1l2.072 1.769c-0.097 0.588-0.144 1.188-0.144 1.784 0 0.6 0.047 1.2 0.144 1.784l-2.072 1.769c-0.154 0.132-0.265 0.308-0.317 0.505s-0.043 0.404 0.026 0.595l0.028 0.081c0.566 1.575 1.403 3.028 2.491 4.309l0.056 0.066c0.131 0.154 0.307 0.266 0.502 0.318s0.403 0.046 0.595-0.022l2.559-0.909c0.931 0.765 1.972 1.372 3.094 1.794l0.494 2.669c0.037 0.2 0.134 0.384 0.278 0.527s0.328 0.24 0.528 0.276l0.084 0.016c1.643 0.295 3.326 0.295 4.969 0l0.084-0.016c0.2-0.036 0.384-0.133 0.528-0.276s0.241-0.327 0.278-0.527l0.491-2.656c1.131-0.424 2.184-1.032 3.116-1.8l2.541 0.903c0.192 0.068 0.399 0.076 0.595 0.023s0.371-0.165 0.502-0.319l0.056-0.066c1.088-1.284 1.925-2.734 2.491-4.309l0.028-0.081c0.141-0.384 0.025-0.822-0.291-1.094zM24.634 14.56c0.078 0.472 0.119 0.956 0.119 1.441s-0.041 0.969-0.119 1.441l-0.206 1.253 2.334 1.997c-0.354 0.815-0.801 1.587-1.331 2.3l-2.9-1.028-0.981 0.806c-0.747 0.612-1.578 1.094-2.478 1.431l-1.191 0.447-0.559 3.031c-0.883 0.1-1.774 0.1-2.656 0l-0.559-3.038-1.181-0.453c-0.891-0.338-1.719-0.819-2.459-1.428l-0.981-0.809-2.919 1.038c-0.531-0.716-0.975-1.488-1.331-2.3l2.359-2.016-0.203-1.25c-0.075-0.466-0.116-0.947-0.116-1.422 0-0.478 0.037-0.956 0.116-1.422l0.203-1.25-2.359-2.016c0.353-0.816 0.8-1.584 1.331-2.3l2.919 1.037 0.981-0.809c0.741-0.609 1.569-1.091 2.459-1.428l1.184-0.447 0.559-3.038c0.878-0.1 1.775-0.1 2.656 0l0.559 3.031 1.191 0.447c0.897 0.338 1.731 0.819 2.478 1.431l0.981 0.806 2.9-1.028c0.531 0.716 0.975 1.488 1.331 2.3l-2.334 1.997 0.203 1.247zM16 10.188c-3.037 0-5.5 2.463-5.5 5.5s2.463 5.5 5.5 5.5c3.038 0 5.5-2.462 5.5-5.5s-2.462-5.5-5.5-5.5zM18.475 18.163c-0.325 0.326-0.71 0.584-1.135 0.76s-0.88 0.266-1.34 0.265c-0.934 0-1.813-0.366-2.475-1.025-0.326-0.325-0.584-0.71-0.76-1.135s-0.266-0.88-0.265-1.34c0-0.934 0.366-1.813 1.025-2.475 0.662-0.662 1.541-1.025 2.475-1.025s1.813 0.363 2.475 1.025c0.326 0.325 0.584 0.71 0.76 1.135s0.266 0.88 0.265 1.34c0 0.934-0.366 1.813-1.025 2.475z"></path>
</symbol>
<symbol id="icon-share" viewBox="0 0 32 32">
<path fill="#595959" style="fill: var(--color8, #595959)" d="M23.5 20.75c-0.891 0-1.713 0.313-2.356 0.834l-6.475-4.684c0.108-0.595 0.108-1.205 0-1.8l6.475-4.684c0.644 0.522 1.466 0.834 2.356 0.834 2.069 0 3.75-1.681 3.75-3.75s-1.681-3.75-3.75-3.75c-2.069 0-3.75 1.681-3.75 3.75 0 0.362 0.050 0.709 0.147 1.041l-6.15 4.453c-0.913-1.209-2.363-1.994-3.997-1.994-2.763 0-5 2.237-5 5s2.237 5 5 5c1.634 0 3.084-0.784 3.997-1.994l6.15 4.453c-0.097 0.331-0.147 0.681-0.147 1.041 0 2.069 1.681 3.75 3.75 3.75s3.75-1.681 3.75-3.75c0-2.069-1.681-3.75-3.75-3.75zM23.5 5.875c0.897 0 1.625 0.728 1.625 1.625s-0.728 1.625-1.625 1.625c-0.897 0-1.625-0.728-1.625-1.625s0.728-1.625 1.625-1.625zM9.75 18.75c-1.516 0-2.75-1.234-2.75-2.75s1.234-2.75 2.75-2.75c1.516 0 2.75 1.234 2.75 2.75s-1.234 2.75-2.75 2.75zM23.5 26.125c-0.897 0-1.625-0.728-1.625-1.625s0.728-1.625 1.625-1.625c0.897 0 1.625 0.728 1.625 1.625s-0.728 1.625-1.625 1.625z"></path>
</symbol>
<symbol id="icon-smile" viewBox="0 0 32 32">
<path fill="#1890ff" style="fill: var(--color6, #1890ff)" d="M16 2c-7.731 0-14 6.269-14 14s6.269 14 14 14c7.731 0 14-6.269 14-14s-6.269-14-14-14zM16 27.625c-6.419 0-11.625-5.206-11.625-11.625s5.206-11.625 11.625-11.625c6.419 0 11.625 5.206 11.625 11.625s-5.206 11.625-11.625 11.625z"></path>
<path fill="#e6f7ff" style="fill: var(--color5, #e6f7ff)" d="M16 4.375c-6.419 0-11.625 5.206-11.625 11.625s5.206 11.625 11.625 11.625c6.419 0 11.625-5.206 11.625-11.625s-5.206-11.625-11.625-11.625zM9 13.156c0.008-0.393 0.17-0.766 0.45-1.041s0.657-0.429 1.050-0.429c0.393 0 0.77 0.154 1.050 0.429s0.442 0.649 0.45 1.041c-0.008 0.393-0.17 0.766-0.45 1.041s-0.657 0.429-1.050 0.429-0.77-0.154-1.050-0.429c-0.28-0.275-0.442-0.649-0.45-1.041zM16 21.656c-2.672 0-4.863-2.103-5-4.737-0.002-0.034 0.004-0.068 0.015-0.1s0.030-0.061 0.053-0.085 0.052-0.044 0.083-0.057c0.031-0.013 0.065-0.020 0.099-0.020h1.503c0.131 0 0.244 0.1 0.253 0.231 0.119 1.547 1.416 2.769 2.994 2.769s2.878-1.222 2.994-2.769c0.009-0.131 0.122-0.231 0.253-0.231h1.503c0.034 0 0.067 0.007 0.099 0.020s0.059 0.033 0.083 0.057c0.023 0.025 0.042 0.054 0.053 0.085s0.017 0.066 0.015 0.1c-0.137 2.634-2.328 4.737-5 4.737zM21.5 14.656c-0.393-0.008-0.766-0.17-1.041-0.45s-0.429-0.657-0.429-1.050c0-0.393 0.154-0.77 0.429-1.050s0.649-0.442 1.041-0.45c0.393 0.008 0.766 0.17 1.041 0.45s0.429 0.657 0.429 1.050c0 0.393-0.154 0.77-0.429 1.050s-0.649 0.442-1.041 0.45z"></path>
<path fill="#1890ff" style="fill: var(--color6, #1890ff)" d="M9 13.156c0 0.398 0.158 0.779 0.439 1.061s0.663 0.439 1.061 0.439c0.398 0 0.779-0.158 1.061-0.439s0.439-0.663 0.439-1.061c0-0.398-0.158-0.779-0.439-1.061s-0.663-0.439-1.061-0.439c-0.398 0-0.779 0.158-1.061 0.439s-0.439 0.663-0.439 1.061zM20.75 16.656h-1.503c-0.131 0-0.244 0.1-0.253 0.231-0.116 1.547-1.416 2.769-2.994 2.769s-2.875-1.222-2.994-2.769c-0.009-0.131-0.122-0.231-0.253-0.231h-1.503c-0.034 0-0.067 0.007-0.099 0.020s-0.059 0.033-0.083 0.057c-0.023 0.025-0.042 0.054-0.053 0.085s-0.017 0.066-0.015 0.1c0.137 2.634 2.328 4.737 5 4.737s4.863-2.103 5-4.737c0.002-0.034-0.003-0.068-0.015-0.1s-0.030-0.061-0.053-0.085-0.051-0.044-0.083-0.057c-0.031-0.013-0.065-0.020-0.099-0.020zM20 13.156c0 0.398 0.158 0.779 0.439 1.061s0.663 0.439 1.061 0.439c0.398 0 0.779-0.158 1.061-0.439s0.439-0.663 0.439-1.061c0-0.398-0.158-0.779-0.439-1.061s-0.663-0.439-1.061-0.439c-0.398 0-0.779 0.158-1.061 0.439s-0.439 0.663-0.439 1.061z"></path>
</symbol>
<symbol id="icon-trophy" viewBox="0 0 32 32">
<path fill="#e6f7ff" style="fill: var(--color5, #e6f7ff)" d="M10 15c0 1.534 0.597 2.978 1.684 4.066 1.084 1.087 2.531 1.684 4.066 1.684h0.5c1.534 0 2.978-0.597 4.066-1.684 1.087-1.084 1.684-2.531 1.684-4.066v-9.25h-12v9.25zM5.75 11c0 1.281 0.841 2.369 2 2.737-1.159-0.372-2-1.459-2-2.737zM17.125 22.953c3.656-0.397 6.575-3.259 7.056-6.891-0.484 3.631-3.4 6.491-7.056 6.891zM7.819 16.063c0.481 3.631 3.4 6.494 7.056 6.891-3.656-0.4-6.572-3.259-7.056-6.891z"></path>
<path fill="#1890ff" style="fill: var(--color6, #1890ff)" d="M27.125 5h-2.875v-1.25c0-0.138-0.113-0.25-0.25-0.25h-16c-0.138 0-0.25 0.112-0.25 0.25v1.25h-2.875c-0.365 0-0.714 0.145-0.972 0.403s-0.403 0.608-0.403 0.972v4.625c0 2.553 1.875 4.675 4.319 5.063 0.484 3.631 3.4 6.491 7.056 6.891v3.288h-6.125c-0.553 0-1 0.447-1 1v1.009c0 0.137 0.112 0.25 0.25 0.25h16c0.137 0 0.25-0.113 0.25-0.25v-1.009c0-0.553-0.447-1-1-1h-6.125v-3.288c3.656-0.4 6.572-3.259 7.056-6.891 2.444-0.387 4.319-2.509 4.319-5.063v-4.625c0-0.365-0.145-0.714-0.403-0.972s-0.608-0.403-0.972-0.403zM7.75 13.737c-0.58-0.185-1.087-0.55-1.447-1.043s-0.553-1.086-0.553-1.695v-3.75h2v6.487zM22 15c0 1.534-0.597 2.981-1.684 4.066-1.087 1.087-2.531 1.684-4.066 1.684h-0.5c-1.534 0-2.981-0.597-4.066-1.684-1.088-1.087-1.684-2.531-1.684-4.066v-9.25h12v9.25zM26.25 11c0 1.281-0.841 2.369-2 2.737v-6.487h2v3.75z"></path>
</symbol>
<symbol id="icon-useradd" viewBox="0 0 32 32">
<path fill="#1890ff" style="fill: var(--color6, #1890ff)" d="M21.197 20.075c0.756-0.406 1.622-0.638 2.544-0.638h0.003c0.094 0 0.138-0.112 0.069-0.175-0.959-0.86-2.054-1.555-3.241-2.056-0.012-0.006-0.025-0.009-0.037-0.016 1.941-1.409 3.203-3.7 3.203-6.284 0-4.281-3.463-7.75-7.734-7.75s-7.731 3.469-7.731 7.75c0 2.584 1.262 4.875 3.206 6.284-0.012 0.006-0.025 0.009-0.037 0.016-1.397 0.591-2.65 1.437-3.728 2.519-1.072 1.070-1.925 2.338-2.513 3.734-0.578 1.367-0.89 2.832-0.919 4.316-0.001 0.033 0.005 0.067 0.017 0.098s0.030 0.059 0.054 0.083 0.051 0.043 0.082 0.056c0.031 0.013 0.064 0.020 0.097 0.020h1.872c0.134 0 0.247-0.109 0.25-0.244 0.063-2.412 1.028-4.672 2.737-6.384 1.766-1.772 4.116-2.747 6.616-2.747 1.772 0 3.472 0.491 4.937 1.409 0.038 0.024 0.081 0.037 0.125 0.039s0.089-0.008 0.128-0.029zM16.006 16.281c-1.431 0-2.778-0.559-3.794-1.575-0.5-0.498-0.896-1.091-1.166-1.743s-0.408-1.351-0.406-2.057c0-1.434 0.559-2.784 1.572-3.8s2.359-1.575 3.794-1.575c1.434 0 2.778 0.559 3.794 1.575 0.5 0.498 0.896 1.091 1.166 1.743s0.408 1.351 0.406 2.057c0 1.434-0.559 2.784-1.572 3.8-1.016 1.016-2.362 1.575-3.794 1.575zM27.5 23.719h-2.625v-2.625c0-0.137-0.113-0.25-0.25-0.25h-1.75c-0.137 0-0.25 0.113-0.25 0.25v2.625h-2.625c-0.137 0-0.25 0.112-0.25 0.25v1.75c0 0.137 0.113 0.25 0.25 0.25h2.625v2.625c0 0.137 0.113 0.25 0.25 0.25h1.75c0.137 0 0.25-0.113 0.25-0.25v-2.625h2.625c0.138 0 0.25-0.113 0.25-0.25v-1.75c0-0.138-0.112-0.25-0.25-0.25z"></path>
</symbol>
<symbol id="icon-usergroupadd" viewBox="0 0 32 32">
<path d="M27.875 24.125h-2.5v-2.5c0-0.137-0.113-0.25-0.25-0.25h-1.5c-0.137 0-0.25 0.113-0.25 0.25v2.5h-2.5c-0.137 0-0.25 0.113-0.25 0.25v1.5c0 0.137 0.113 0.25 0.25 0.25h2.5v2.5c0 0.137 0.113 0.25 0.25 0.25h1.5c0.137 0 0.25-0.113 0.25-0.25v-2.5h2.5c0.137 0 0.25-0.113 0.25-0.25v-1.5c0-0.137-0.113-0.25-0.25-0.25zM11.672 15.575c-0.028-0.272-0.044-0.547-0.044-0.825 0-0.497 0.047-0.981 0.134-1.453 0.022-0.113-0.037-0.228-0.141-0.275-0.425-0.191-0.816-0.453-1.153-0.784-0.398-0.386-0.711-0.85-0.919-1.363s-0.307-1.064-0.291-1.618c0.028-1.003 0.431-1.956 1.134-2.675 0.772-0.791 1.809-1.222 2.912-1.209 0.997 0.009 1.959 0.394 2.688 1.075 0.247 0.231 0.459 0.487 0.637 0.763 0.063 0.097 0.184 0.138 0.291 0.1 0.55-0.191 1.131-0.325 1.728-0.388 0.175-0.019 0.275-0.206 0.197-0.362-1.016-2.009-3.091-3.397-5.491-3.434-3.462-0.053-6.35 2.788-6.35 6.25 0 1.963 0.903 3.713 2.319 4.859-0.994 0.459-1.909 1.094-2.703 1.887-1.713 1.709-2.681 3.966-2.744 6.375-0.001 0.033 0.005 0.067 0.017 0.098s0.030 0.059 0.054 0.083c0.023 0.024 0.051 0.043 0.082 0.056s0.064 0.020 0.097 0.020h1.753c0.134 0 0.247-0.106 0.25-0.241 0.059-1.812 0.794-3.509 2.084-4.797 0.919-0.919 2.044-1.556 3.272-1.866 0.119-0.034 0.2-0.15 0.184-0.275zM25.75 14.75c0-3.419-2.747-6.197-6.153-6.25-3.463-0.053-6.347 2.787-6.347 6.25 0 1.962 0.906 3.712 2.319 4.859-1.004 0.465-1.918 1.104-2.7 1.887-1.713 1.709-2.681 3.966-2.744 6.372-0.001 0.033 0.005 0.067 0.017 0.098s0.030 0.059 0.054 0.083c0.023 0.024 0.051 0.043 0.082 0.056s0.064 0.020 0.097 0.020h1.75c0.134 0 0.247-0.106 0.25-0.241 0.059-1.812 0.794-3.509 2.084-4.797 1.347-1.347 3.134-2.087 5.041-2.087 3.45 0 6.25-2.797 6.25-6.25zM22.328 17.578c-0.756 0.756-1.759 1.172-2.828 1.172s-2.072-0.416-2.828-1.172c-0.377-0.375-0.676-0.823-0.877-1.316s-0.302-1.021-0.295-1.553c0.009-1.025 0.419-2.016 1.134-2.75 0.75-0.769 1.753-1.197 2.825-1.209 1.059-0.009 2.087 0.403 2.844 1.144 0.775 0.759 1.2 1.775 1.2 2.856-0.003 1.069-0.419 2.072-1.175 2.828z"></path>
</symbol>
</defs>
</svg>
